<svg width="314" height="63" viewBox="0 0 314 63" fill="none" xmlns="http://www.w3.org/2000/svg">
<path d="M14.85 31.4953L7.73004 38.6092L0.616211 31.4953L7.73004 24.3815L14.85 31.4953ZM32.1115 14.2215L44.3023 26.4184L51.4161 19.3046L32.1115 0L12.807 19.3046L19.9208 26.4184L32.1115 14.2215ZM56.4992 24.3815L49.3853 31.4953L56.4992 38.6092L63.6069 31.4953L56.4992 24.3815ZM32.1115 48.7691L19.9208 36.5784L12.807 43.6861L32.1115 62.9906L51.4161 43.6861L44.3023 36.5784L32.1115 48.7691ZM32.1115 38.6092L39.2254 31.4953L32.1115 24.3815L24.9977 31.4953L32.1115 38.6092ZM107.188 39.2922V39.1938C107.188 34.5538 104.727 32.2338 100.721 30.7076C103.182 29.323 105.262 27.1507 105.262 23.2553V23.1569C105.262 17.7292 100.918 14.2215 93.8591 14.2215H77.8345V48.7691H94.2653C102.062 48.7691 107.201 45.6122 107.201 39.2922H107.188ZM97.7114 24.523C97.7114 27.0892 95.5883 28.1784 92.2345 28.1784H85.2376V20.8861H92.7391C95.9453 20.8861 97.7237 22.1661 97.7237 24.4369L97.7114 24.523ZM99.6376 38.3445C99.6376 40.9107 97.6129 42.0922 94.2529 42.0922H85.2376V34.5045H94.0191C97.9206 34.5045 99.6499 35.9384 99.6499 38.2584L99.6376 38.3445ZM123.158 48.7691V14.2215H115.533V48.7691H123.158ZM164.013 48.7691V14.2215H156.487V35.4953L140.302 14.2215H133.293V48.7691H140.794V26.8061L157.521 48.7691H164.013ZM206.111 48.7691L191.28 13.9754H184.271L169.471 48.7691H177.219L180.388 41.0215H194.997L198.154 48.7691H206.111ZM192.296 34.3076H183.09L187.68 23.1076L192.296 34.3076ZM242.339 48.7691V14.2215H234.813V35.4953L218.622 14.2215H211.619V48.7691H219.114V26.8061L235.847 48.7691H242.339ZM281.57 43.1938L276.739 38.3076C274.025 40.7691 271.606 42.3507 267.656 42.3507C261.736 42.3507 257.637 37.4276 257.637 31.4953V31.3969C257.637 25.4769 261.834 20.64 267.656 20.64C271.108 20.64 273.81 22.1169 276.493 24.5353L281.311 18.96C278.105 15.803 274.21 13.6307 267.693 13.6307C257.083 13.6307 249.68 21.6738 249.68 31.4769V31.5753C249.68 41.4953 257.231 49.3414 267.397 49.3414C274.05 49.3599 277.994 46.9907 281.545 43.1938H281.57ZM314 48.7691V41.9999H295.219V34.7322H311.508V27.963H295.219V20.9846H313.729V14.2154H287.668V48.763L314 48.7691Z" fill="#606060"/>
</svg>
