<svg width="284" height="82" viewBox="0 0 284 82" fill="none" xmlns="http://www.w3.org/2000/svg">
<path d="M37.2071 14.9956C32.1912 14.9956 28.125 19.0607 28.125 24.0767C28.125 24.8159 28.2306 25.5557 28.389 26.2949H28.4952C33.1944 26.2949 37.2597 28.9874 39.1077 32.9474C43.226 32.1026 46.2882 28.459 46.2882 24.0767C46.2882 19.0607 42.2231 14.9956 37.2071 14.9956ZM62.2868 15.3648V51.9026H80.1324V51.9552C89.6363 51.9552 95.9196 49.1038 95.9196 40.9199C95.9196 36.9599 93.8078 33.5806 89.7951 32.5246C92.1183 31.0462 94.5996 28.3008 94.5996 24.5521C94.5996 17.3186 88.0525 15.3648 79.8158 15.3648H62.2868ZM74.3245 23.9189H78.4958C81.0302 23.9189 83.4066 23.9717 83.4066 26.8229C83.4066 28.9348 81.6638 30.0434 79.2878 30.0434H74.3245V23.9189ZM113.766 24.5521C103.206 24.5521 99.1938 27.8259 99.1938 33.4754H109.383C109.647 31.205 111.601 30.888 113.079 30.888C114.188 30.888 116.564 31.1518 116.564 33.0526C116.564 38.0157 97.5562 32.5248 97.5562 44.6158C97.5562 50.1598 102.044 52.6409 107.06 52.6409C111.02 52.6409 114.082 51.8496 117.092 49.0512L117.62 51.9026H128.55V51.4272C127.177 50.3184 127.124 49.5262 127.124 48.0478V35.5874C127.124 29.2514 126.385 24.5521 113.766 24.5521ZM206.905 24.5521C201.361 24.5521 194.285 26.5055 194.285 33.3166C194.285 43.6125 210.6 40.2331 210.6 44.457C210.6 46.3578 208.858 46.833 207.221 46.833C206.218 46.833 205.267 46.5162 204.634 46.041C203.895 45.4602 203.525 44.6684 203.525 43.6125H193.546V43.665C194.127 50.8458 200.833 52.6946 206.905 52.6946C216.672 52.6946 221.266 48.945 221.266 43.401C221.266 33.4748 204.422 35.9565 204.422 32.2606C204.422 30.9406 205.585 30.36 207.433 30.36C208.225 30.36 209.017 30.5708 209.544 30.9932C210.125 31.4684 210.441 32.0498 210.547 32.9474H220.157C219.523 25.8723 212.712 24.5521 206.905 24.5521ZM237.369 24.5521C228.552 24.5521 222.163 29.779 222.163 38.8605C222.163 47.8364 228.763 52.6409 237.369 52.6409C244.761 52.6409 251.256 49.6314 252.153 41.5531H241.488C241.171 43.6122 240.115 45.513 237.369 45.513C234.254 45.513 232.723 42.8733 232.723 38.8605C232.723 35.6925 233.409 31.6274 237.369 31.6274C238.531 31.6274 239.481 31.997 240.115 32.6834C240.801 33.317 241.171 34.267 241.224 35.4286H251.988C251.223 27.6011 244.481 24.5521 237.369 24.5521ZM251.988 35.4286C251.99 35.4464 251.993 35.4633 251.994 35.4811V35.4286H251.988ZM148.878 24.6047C144.865 24.6047 142.278 26.3475 139.849 29.5154V25.3441H130.187V51.9552H130.239H140.799V38.3851C140.799 35.0059 141.644 32.8948 144.918 32.8948C147.927 32.8948 148.614 35.2171 148.614 37.8571V51.9026H159.226V36.0091C159.226 28.7228 155.9 24.6047 148.878 24.6047ZM177.019 24.6047C168.466 24.6047 161.919 30.2012 161.919 38.9131C161.919 47.8362 168.519 52.6946 177.073 52.6946C183.303 52.6946 190.009 50.529 191.857 43.929H181.719C180.979 45.513 179.448 46.2524 177.759 46.2524C174.96 46.2524 172.531 44.193 172.531 41.0251H192.701C192.86 31.3628 186.893 24.6047 177.019 24.6047ZM268.416 24.6573C259.44 24.6045 253.314 29.7268 253.314 38.9667C253.314 48.0482 259.915 52.7472 268.468 52.7472C277.022 52.7472 283.621 48.1538 283.621 38.4387C283.621 30.1492 277.814 24.6573 268.416 24.6573ZM177.442 31.0468C179.924 31.0468 182.141 33.2112 182.141 35.64H172.479C172.479 32.7888 174.274 31.0468 177.442 31.0468ZM268.574 31.68C271.319 31.5216 273.062 34.478 273.062 38.3851C273.062 43.401 271.32 45.5666 268.468 45.5666C265.776 45.5666 263.874 43.401 263.874 38.3851C263.927 35.3755 264.983 31.68 268.574 31.68ZM74.2719 36.6433H78.074C81.8756 36.6433 84.674 36.8548 84.674 40.0227C84.674 42.7683 82.456 43.3485 79.4992 43.3485H74.2719V36.6433ZM116.511 40.1805C116.775 43.8237 115.562 46.7278 111.866 46.7278C109.754 46.7278 108.486 45.8306 108.486 44.5107C108.486 41.0787 113.079 41.8701 116.511 40.1805Z" fill="#606060"/>
<path d="M13.3418 9.08149C13.3418 4.06555 17.4073 0 22.4233 0C27.4392 0 31.5048 4.06555 31.5048 9.08149C31.5048 14.0974 27.4392 18.163 22.4233 18.163C17.4073 18.163 13.3418 14.0974 13.3418 9.08149Z" fill="#A8A8A8"/>
<path fill-rule="evenodd" clip-rule="evenodd" d="M19.4132 38.0156C19.4132 32.9996 23.4787 28.9341 28.4947 28.9341C33.5106 28.9341 37.5762 32.9996 37.5762 38.0156C37.5762 43.0315 33.5106 47.0971 28.4947 47.0971C23.4787 47.0971 19.4132 43.0315 19.4132 38.0156ZM0.299805 49.1562C0.299805 42.8731 7.21652 37.5404 17.09 35.1116C16.9316 35.6924 16.826 36.326 16.7732 36.9596C12.4965 38.4908 9.80369 40.8667 9.80369 43.5595C9.80369 48.2587 18.1988 52.0074 28.5475 52.0074C38.8962 52.0074 47.2913 48.2059 47.2913 43.5595C47.2913 40.9195 44.5457 38.5436 40.3217 36.9596C40.2689 36.326 40.1633 35.6924 40.0049 35.1116C49.8784 37.4876 56.7423 42.8731 56.7423 49.1034C56.7423 57.5513 44.1233 64.4153 28.5475 64.4153C12.9189 64.4681 0.299805 57.6041 0.299805 49.1562Z" fill="#2D2D2D"/>
<path d="M213.013 64.538C213.013 65.678 212.639 66.5963 211.892 67.293C211.145 67.9897 210.024 68.338 208.529 68.338H205.85V74H204.52V60.719H208.529C210.011 60.719 211.126 61.0673 211.873 61.764C212.633 62.4607 213.013 63.3853 213.013 64.538ZM208.529 67.198C210.606 67.198 211.645 66.3113 211.645 64.538C211.645 63.6513 211.398 62.98 210.904 62.524C210.41 62.068 209.618 61.84 208.529 61.84H205.85V67.198H208.529ZM214.637 68.794C214.637 67.73 214.846 66.799 215.264 66.001C215.694 65.1903 216.283 64.5697 217.031 64.139C217.791 63.6957 218.646 63.474 219.596 63.474C220.584 63.474 221.432 63.702 222.142 64.158C222.864 64.614 223.383 65.1967 223.7 65.906V63.626H225.03V74H223.7V71.701C223.37 72.4103 222.845 72.9993 222.123 73.468C221.413 73.924 220.565 74.152 219.577 74.152C218.639 74.152 217.791 73.9303 217.031 73.487C216.283 73.0437 215.694 72.4167 215.264 71.606C214.846 70.7953 214.637 69.858 214.637 68.794ZM223.7 68.813C223.7 67.977 223.529 67.2423 223.187 66.609C222.845 65.9757 222.376 65.488 221.781 65.146C221.198 64.804 220.552 64.633 219.843 64.633C219.108 64.633 218.449 64.7977 217.867 65.127C217.284 65.4563 216.822 65.9377 216.48 66.571C216.15 67.1917 215.986 67.9327 215.986 68.794C215.986 69.6427 216.15 70.39 216.48 71.036C216.822 71.6693 217.284 72.157 217.867 72.499C218.449 72.8283 219.108 72.993 219.843 72.993C220.552 72.993 221.198 72.822 221.781 72.48C222.376 72.138 222.845 71.6503 223.187 71.017C223.529 70.3837 223.7 69.649 223.7 68.813ZM232.93 63.436C234.171 63.436 235.185 63.8223 235.97 64.595C236.755 65.355 237.148 66.4633 237.148 67.92V74H235.837V68.072C235.837 66.9447 235.552 66.0833 234.982 65.488C234.425 64.8927 233.658 64.595 232.683 64.595C231.682 64.595 230.884 64.9117 230.289 65.545C229.694 66.1783 229.396 67.1093 229.396 68.338V74H228.066V63.626H229.396V65.393C229.725 64.7597 230.2 64.2783 230.821 63.949C231.442 63.607 232.145 63.436 232.93 63.436ZM239.481 68.794C239.481 67.73 239.69 66.799 240.108 66.001C240.539 65.1903 241.128 64.5697 241.875 64.139C242.635 63.6957 243.49 63.474 244.44 63.474C245.428 63.474 246.277 63.702 246.986 64.158C247.708 64.614 248.228 65.1967 248.544 65.906V63.626H249.874V74H248.544V71.701C248.215 72.4103 247.689 72.9993 246.967 73.468C246.258 73.924 245.409 74.152 244.421 74.152C243.484 74.152 242.635 73.9303 241.875 73.487C241.128 73.0437 240.539 72.4167 240.108 71.606C239.69 70.7953 239.481 69.858 239.481 68.794ZM248.544 68.813C248.544 67.977 248.373 67.2423 248.031 66.609C247.689 65.9757 247.221 65.488 246.625 65.146C246.043 64.804 245.397 64.633 244.687 64.633C243.953 64.633 243.294 64.7977 242.711 65.127C242.129 65.4563 241.666 65.9377 241.324 66.571C240.995 67.1917 240.83 67.9327 240.83 68.794C240.83 69.6427 240.995 70.39 241.324 71.036C241.666 71.6693 242.129 72.157 242.711 72.499C243.294 72.8283 243.953 72.993 244.687 72.993C245.397 72.993 246.043 72.822 246.625 72.48C247.221 72.138 247.689 71.6503 248.031 71.017C248.373 70.3837 248.544 69.649 248.544 68.813ZM265.261 63.436C266.477 63.436 267.465 63.8223 268.225 64.595C268.997 65.355 269.384 66.4633 269.384 67.92V74H268.073V68.072C268.073 66.9447 267.8 66.0833 267.256 65.488C266.711 64.8927 265.97 64.595 265.033 64.595C264.057 64.595 263.278 64.918 262.696 65.564C262.113 66.21 261.822 67.1473 261.822 68.376V74H260.511V68.072C260.511 66.9447 260.238 66.0833 259.694 65.488C259.149 64.8927 258.402 64.595 257.452 64.595C256.476 64.595 255.697 64.918 255.115 65.564C254.532 66.21 254.241 67.1473 254.241 68.376V74H252.911V63.626H254.241V65.412C254.57 64.766 255.039 64.2783 255.647 63.949C256.255 63.607 256.932 63.436 257.68 63.436C258.579 63.436 259.364 63.6513 260.036 64.082C260.72 64.5127 261.214 65.146 261.518 65.982C261.796 65.1587 262.271 64.5317 262.943 64.101C263.627 63.6577 264.399 63.436 265.261 63.436ZM271.729 68.794C271.729 67.73 271.938 66.799 272.356 66.001C272.787 65.1903 273.376 64.5697 274.123 64.139C274.883 63.6957 275.738 63.474 276.688 63.474C277.676 63.474 278.525 63.702 279.234 64.158C279.956 64.614 280.476 65.1967 280.792 65.906V63.626H282.122V74H280.792V71.701C280.463 72.4103 279.937 72.9993 279.215 73.468C278.506 73.924 277.657 74.152 276.669 74.152C275.732 74.152 274.883 73.9303 274.123 73.487C273.376 73.0437 272.787 72.4167 272.356 71.606C271.938 70.7953 271.729 69.858 271.729 68.794ZM280.792 68.813C280.792 67.977 280.621 67.2423 280.279 66.609C279.937 65.9757 279.469 65.488 278.873 65.146C278.291 64.804 277.645 64.633 276.935 64.633C276.201 64.633 275.542 64.7977 274.959 65.127C274.377 65.4563 273.914 65.9377 273.572 66.571C273.243 67.1917 273.078 67.9327 273.078 68.794C273.078 69.6427 273.243 70.39 273.572 71.036C273.914 71.6693 274.377 72.157 274.959 72.499C275.542 72.8283 276.201 72.993 276.935 72.993C277.645 72.993 278.291 72.822 278.873 72.48C279.469 72.138 279.937 71.6503 280.279 71.017C280.621 70.3837 280.792 69.649 280.792 68.813ZM279.006 60.567L275.111 62.828V61.802L279.006 59.37V60.567Z" fill="#2D2D2D"/>
</svg>
