<svg width="140" height="61" viewBox="0 0 140 61" fill="none" xmlns="http://www.w3.org/2000/svg">
<path d="M14.2251 9.09728L1.51387 8.98037V17.4065H22.5797L0.6875 45.4452V52.5756H14.2251V60.7882H22.3476V52.5756H36.1559C36.272 52.2471 36.3126 51.3613 35.5777 50.5497C34.3593 49.1971 33.3904 47.7833 32.5008 46.0056C32.0947 45.2133 31.7862 44.2645 31.6702 44.1872C28.951 44.0626 13.3076 44.0948 13.3161 43.9959L35.2276 15.7852V9.09728H22.3476V0.788086H14.2251V9.09728ZM72.8814 5.17457C72.688 5.25186 72.63 9.5224 72.63 25.6963C72.63 47.5515 72.6107 47.1843 73.5776 49.0587C74.4479 50.7399 76.5752 52.2471 78.954 52.8655C80.2691 53.2133 84.1369 53.252 85.6261 52.9428C87.5407 52.537 87.9081 51.9573 87.1539 50.4693C86.6704 49.5418 86.0322 47.5128 85.8775 46.392C85.6647 45.0587 85.394 44.8461 83.7695 44.8848C82.9959 44.9041 82.261 44.8461 82.1256 44.7688C81.3327 44.2664 81.3327 44.1312 81.3327 24.5562C81.3327 11.9765 81.2747 5.65766 81.1393 5.40645C80.9459 5.05863 80.6945 5.0393 77.02 5.05863C74.8734 5.05863 72.9974 5.1166 72.8814 5.17457ZM90.6156 5.23254C90.3642 5.38713 90.3255 7.86056 90.3255 25.5611C90.3255 44.6336 90.3449 45.793 90.693 47.1263C91.3505 49.7544 92.8397 51.3582 95.6632 52.537C96.7462 52.9814 97.2297 53.0587 99.415 53.1167C102.335 53.194 103.824 52.9814 105.314 52.2278C106.783 51.5128 106.822 51.0104 105.565 49.1746C105.062 48.4403 104.289 47.1843 103.863 46.392L103.09 44.9428L101.678 44.9234C99.9179 44.8848 99.7438 44.8075 99.415 43.9766C99.1636 43.4162 99.1249 40.537 99.1249 24.5562C99.1249 11.9765 99.0669 5.65766 98.9316 5.40645C98.7382 5.05863 98.4868 5.0393 94.8123 5.0393C92.6656 5.0393 90.7703 5.13592 90.6156 5.23254Z" fill="#606060"/>
<path d="M48.5521 17.3096C48.4554 17.3483 47.7011 17.5222 46.9082 17.6961C41.938 18.8362 37.548 22.643 35.6914 27.4739C34.6664 30.1406 34.299 32.2082 34.2796 35.2807C34.2603 39.5899 35.1305 42.759 37.1225 45.7735C39.3659 49.1551 42.6536 51.4546 46.9082 52.6141C48.3587 53.0005 48.9969 53.0585 52.3233 53.0585C55.611 53.0585 56.2878 53.0005 57.6609 52.6334C61.0647 51.6865 63.9656 50.1213 66.3056 47.8991C67.7948 46.5078 67.7754 46.1213 66.267 44.9619C65.6481 44.4788 64.5264 43.4353 63.7915 42.6237C62.8632 41.6382 62.3024 41.1744 62.0123 41.1744C61.7415 41.1744 61.1227 41.5609 60.5232 42.1406C58.4538 44.015 55.843 44.9039 52.42 44.8846C49.287 44.8653 47.0049 44.0537 45.5545 42.3918C44.8196 41.5609 43.8913 39.6672 43.6979 38.6044L43.5819 37.8894H55.6303C62.2637 37.8894 67.8141 37.8121 67.9495 37.7155C68.5877 37.3097 68.7424 34.5077 68.2783 31.4546C67.1759 24.1502 62.8052 19.242 55.9397 17.5995C54.7213 17.3096 53.7157 17.213 51.5497 17.2324C50.0025 17.2324 48.6681 17.271 48.5521 17.3096ZM53.7157 24.7686C55.1275 25.0585 56.868 26.0246 57.6803 26.9522C58.4345 27.8024 59.2081 29.329 59.4015 30.3145L59.5368 30.9329H43.7753L43.9106 30.3145C44.4908 27.7058 46.7342 25.5222 49.519 24.8266C50.7568 24.5174 52.42 24.4981 53.7157 24.7686ZM118.851 17.4836C111.985 19.0101 107.344 23.8411 105.893 30.9715C105.023 35.1841 105.507 40.0923 107.15 43.6092C109.394 48.4788 113.474 51.6286 119.044 52.7687C120.804 53.1358 121.5 53.1745 124.266 53.0972C126.606 53.0199 127.863 52.8846 128.946 52.5947C132.253 51.7252 135.154 50.1406 137.378 48.015C139.08 46.3725 139.08 46.2952 137.242 44.7686C136.392 44.073 135.251 42.9715 134.709 42.3339C133.452 40.8846 133.123 40.8653 131.711 42.1406C129.603 44.0537 127.089 44.9039 123.589 44.8846C118.677 44.8653 115.814 42.759 114.886 38.5078L114.751 38.0063H139.254C140.085 37.4073 139.776 31.0681 138.77 28.1309C138.577 27.5512 138.055 26.3918 137.629 25.5802C135.367 21.2517 131.75 18.5657 126.722 17.5029C125.117 17.1551 120.379 17.1551 118.851 17.4836ZM124.885 24.7686C126.2 25.0585 127.553 25.7348 128.52 26.6044C129.333 27.358 130.648 29.7348 130.648 30.4691V30.9329H114.944L115.08 30.3918C116.085 26.2565 120.34 23.8024 124.885 24.7686Z" fill="#606060"/>
</svg>
