<svg width="245" height="63" viewBox="0 0 245 63" fill="none" xmlns="http://www.w3.org/2000/svg">
<path d="M45.4368 5.63639C42.5684 2.36695 37.3832 0.965267 30.7501 0.965267H11.4984C10.8418 0.96492 10.2066 1.19894 9.70709 1.62521C9.20763 2.05148 8.8767 2.64201 8.77386 3.29055L0.761331 54.1331C0.724178 54.369 0.738598 54.6101 0.803599 54.8398C0.8686 55.0696 0.982637 55.2825 1.13785 55.4639C1.29307 55.6454 1.48577 55.791 1.70268 55.8908C1.9196 55.9906 2.15557 56.0422 2.39434 56.042H14.2795L17.2645 37.109L17.1719 37.7019C17.2728 37.0547 17.6015 36.4648 18.0989 36.0384C18.5962 35.6121 19.2294 35.3774 19.8845 35.3767H25.5323C36.6275 35.3767 45.3152 30.87 47.8529 17.8334C47.9283 17.4479 47.9934 17.0726 48.05 16.7059C48.804 11.8874 48.0448 8.60768 45.4386 5.63811" fill="#606060"/>
<path d="M190.938 29.8299C190.212 34.6004 186.569 34.6004 183.046 34.6004H181.041L182.448 25.6934C182.533 25.1554 182.996 24.7595 183.541 24.7595H184.461C186.86 24.7595 189.125 24.7595 190.294 26.1252C190.991 26.9426 191.202 28.1558 190.938 29.8299ZM189.405 17.3827H176.115C175.674 17.383 175.249 17.5401 174.914 17.8259C174.579 18.1116 174.357 18.5074 174.288 18.9421L168.918 53.0193C168.893 53.1773 168.903 53.3387 168.946 53.4926C168.99 53.6465 169.066 53.7891 169.17 53.9107C169.274 54.0323 169.403 54.13 169.548 54.197C169.693 54.2641 169.851 54.299 170.011 54.2993H176.831C177.466 54.2993 178.008 53.8367 178.107 53.2095L179.632 43.5451C179.773 42.6489 180.547 41.9858 181.456 41.9858H185.661C194.417 41.9858 199.468 37.7516 200.788 29.3536C201.382 25.6831 200.812 22.7975 199.093 20.7773C197.203 18.5565 193.853 17.381 189.406 17.381" fill="#A8A8A8"/>
<path d="M96.1437 29.8298C95.4172 34.6003 91.7742 34.6003 88.2494 34.6003H86.2446L87.6514 25.6933C87.7371 25.1553 88.1998 24.7594 88.7447 24.7594H89.6648C92.0638 24.7594 94.3291 24.7594 95.4977 26.1251C96.1969 26.9425 96.4076 28.1557 96.1437 29.8298ZM94.6101 17.3826H81.3199C80.4117 17.3826 79.6372 18.044 79.4949 18.9419L74.123 53.0192C74.098 53.1772 74.1075 53.3388 74.151 53.4928C74.1944 53.6468 74.2707 53.7895 74.3746 53.9112C74.4785 54.0328 74.6075 54.1305 74.7528 54.1975C74.8981 54.2645 75.0562 54.2992 75.2162 54.2992H81.5632C82.4714 54.2992 83.2442 53.6378 83.3864 52.7399L84.8378 43.5467C84.9783 42.6488 85.7528 41.9874 86.661 41.9874H90.866C99.6222 41.9874 104.674 37.7515 105.993 29.3534C106.588 25.683 106.017 22.7974 104.298 20.7771C102.408 18.5564 99.0585 17.3809 94.6118 17.3809L94.6101 17.3826ZM125.466 42.0645C124.849 45.7006 121.965 48.1424 118.283 48.1424C116.437 48.1424 114.958 47.5478 114.009 46.4238C113.067 45.31 112.714 43.7215 113.012 41.9548C113.584 38.3495 116.518 35.8306 120.144 35.8306C121.951 35.8306 123.416 36.4304 124.386 37.5647C125.361 38.7077 125.745 40.3047 125.466 42.0645ZM134.335 29.6756H127.971C127.707 29.6753 127.451 29.7696 127.249 29.9415C127.048 30.1134 126.915 30.3515 126.874 30.6129L126.597 32.3915L126.151 31.7473C124.774 29.7476 121.701 29.0776 118.634 29.0776C111.603 29.0776 105.597 34.4067 104.429 41.8777C103.82 45.6081 104.684 49.1706 106.799 51.6569C108.74 53.9411 111.511 54.8921 114.813 54.8921C120.481 54.8921 123.624 51.2525 123.624 51.2525L123.339 53.0209C123.314 53.1791 123.324 53.3408 123.367 53.4949C123.411 53.649 123.487 53.7918 123.592 53.9135C123.696 54.0352 123.825 54.1329 123.97 54.1998C124.116 54.2666 124.274 54.3012 124.434 54.3009H130.164C131.073 54.3009 131.847 53.6412 131.989 52.7416L135.43 30.9573C135.455 30.799 135.445 30.6373 135.401 30.4832C135.358 30.3291 135.281 30.1863 135.177 30.0646C135.073 29.943 134.943 29.8454 134.798 29.7785C134.652 29.7116 134.494 29.6771 134.333 29.6773" fill="#606060"/>
<path d="M220.26 42.0645C219.643 45.7006 216.759 48.1424 213.077 48.1424C211.231 48.1424 209.752 47.5478 208.803 46.4238C207.861 45.31 207.508 43.7215 207.806 41.9548C208.378 38.3495 211.31 35.8306 214.937 35.8306C216.745 35.8306 218.21 36.4304 219.18 37.5647C220.155 38.7077 220.539 40.3047 220.26 42.0645ZM229.129 29.6756H222.765C222.5 29.6753 222.244 29.7696 222.043 29.9415C221.842 30.1134 221.709 30.3515 221.668 30.6129L221.391 32.3915L220.945 31.7473C219.567 29.7476 216.495 29.0776 213.428 29.0776C206.399 29.0776 200.393 34.4067 199.223 41.8777C198.614 45.6081 199.48 49.1706 201.594 51.6569C203.536 53.9411 206.306 54.8921 209.608 54.8921C215.278 54.8921 218.421 51.2525 218.421 51.2525L218.137 53.0209C218.111 53.1789 218.12 53.3405 218.163 53.4946C218.206 53.6488 218.282 53.7917 218.386 53.9134C218.49 54.0352 218.619 54.1329 218.765 54.1998C218.91 54.2667 219.068 54.3012 219.228 54.3009H224.957C225.865 54.3009 226.639 53.6412 226.783 52.7416L230.224 30.9573C230.249 30.799 230.239 30.6373 230.195 30.4832C230.151 30.3291 230.075 30.1863 229.971 30.0646C229.866 29.943 229.737 29.8454 229.591 29.7785C229.446 29.7116 229.288 29.6771 229.127 29.6773" fill="#A8A8A8"/>
<path d="M168.231 29.6777H161.833C161.221 29.6777 160.65 29.981 160.308 30.4882L151.483 43.4837L147.742 30.9954C147.628 30.6145 147.394 30.2805 147.076 30.0428C146.757 29.8052 146.37 29.6765 145.972 29.676H139.685C139.509 29.6761 139.335 29.7182 139.178 29.7989C139.022 29.8795 138.886 29.9964 138.784 30.1398C138.681 30.2833 138.615 30.4491 138.589 30.6235C138.563 30.7979 138.58 30.9759 138.637 31.1428L145.679 51.8184L139.055 61.1658C138.938 61.3317 138.868 61.5266 138.854 61.7291C138.841 61.9317 138.883 62.1342 138.976 62.3146C139.069 62.4949 139.21 62.6461 139.384 62.7518C139.557 62.8574 139.756 62.9134 139.959 62.9136H146.351C146.954 62.9136 147.521 62.6171 147.867 62.1202L169.139 31.4169C169.255 31.251 169.323 31.0565 169.336 30.8547C169.348 30.653 169.306 30.4515 169.212 30.2723C169.118 30.093 168.978 29.9429 168.805 29.838C168.632 29.7332 168.433 29.6778 168.231 29.6777Z" fill="#606060"/>
<path d="M236.627 18.3198L231.172 53.0208C231.147 53.1789 231.157 53.3405 231.2 53.4945C231.244 53.6485 231.32 53.7912 231.424 53.9128C231.528 54.0344 231.658 54.1321 231.803 54.199C231.948 54.266 232.106 54.3007 232.266 54.3008H237.752C238.66 54.3008 239.434 53.6394 239.576 52.7415L244.955 18.6625C244.98 18.5043 244.971 18.3426 244.927 18.1885C244.884 18.0344 244.807 17.8916 244.703 17.7699C244.599 17.6482 244.47 17.5505 244.324 17.4836C244.179 17.4168 244.02 17.3823 243.86 17.3825H237.722C237.458 17.3818 237.202 17.4758 237.002 17.6474C236.801 17.8191 236.668 18.057 236.627 18.3181" fill="#A8A8A8"/>
<path d="M45.4368 5.63639C42.5684 2.36695 37.3832 0.965267 30.7501 0.965267H11.4984C10.8418 0.96492 10.2066 1.19894 9.70709 1.62521C9.20763 2.05148 8.8767 2.64201 8.77386 3.29055L0.761331 54.1331C0.724178 54.369 0.738598 54.6101 0.803599 54.8398C0.8686 55.0696 0.982637 55.2825 1.13785 55.4639C1.29307 55.6454 1.48577 55.791 1.70268 55.8908C1.9196 55.9906 2.15557 56.0422 2.39434 56.042H14.2795L17.2645 37.109L17.1719 37.7019C17.2728 37.0547 17.6015 36.4648 18.0989 36.0384C18.5962 35.6121 19.2294 35.3774 19.8845 35.3767H25.5323C36.6275 35.3767 45.3152 30.87 47.8529 17.8334C47.9283 17.4479 47.9934 17.0726 48.05 16.7059C48.804 11.8874 48.0448 8.60768 45.4386 5.63811" fill="#606060"/>
<path d="M20.4696 16.77C20.5596 16.2034 20.8487 15.6873 21.2849 15.3146C21.7211 14.9418 22.2759 14.7367 22.8497 14.736H37.9426C39.7298 14.736 41.3971 14.8526 42.9204 15.0959C43.7533 15.2299 44.5773 15.4141 45.3879 15.6477C46.3085 15.9065 47.1993 16.2614 48.0456 16.7066C48.803 11.8864 48.0422 8.60842 45.4359 5.63714C42.5657 2.36941 37.3822 0.967728 30.7491 0.967728H11.4957C10.8397 0.968193 10.2053 1.20258 9.70656 1.62878C9.20781 2.05498 8.87738 2.64506 8.77463 3.29301L0.758672 54.1304C0.721268 54.3663 0.735442 54.6074 0.800218 54.8373C0.864995 55.0671 0.978833 55.2802 1.13389 55.4618C1.28894 55.6434 1.48153 55.7892 1.69838 55.8892C1.91522 55.9892 2.15117 56.041 2.38997 56.041H14.2768L17.2618 37.1064L20.4696 16.77Z" fill="#606060"/>
<path d="M48.0483 16.7044C47.9895 17.0814 47.9238 17.4573 47.8513 17.832C45.3135 30.8669 36.6258 35.3752 25.5306 35.3752H19.8811C19.2261 35.3757 18.5929 35.6103 18.0958 36.0367C17.5987 36.4631 17.2704 37.0532 17.1703 37.7005L14.2778 56.0388L13.4553 61.2412C13.4226 61.4477 13.4351 61.6589 13.4919 61.8601C13.5486 62.0614 13.6484 62.2479 13.7842 62.4069C13.9201 62.5658 14.0888 62.6935 14.2787 62.7809C14.4686 62.8684 14.6753 62.9137 14.8844 62.9136H24.9035C26.0893 62.9136 27.0968 62.0499 27.2836 60.8796L27.3813 60.369L29.2696 48.4016L29.3895 47.7401C29.4793 47.173 29.7685 46.6566 30.2052 46.2837C30.6418 45.9108 31.1972 45.706 31.7714 45.7062H33.2707C42.9762 45.7062 50.5758 41.765 52.7966 30.3597C53.7219 25.596 53.2421 21.6155 50.7917 18.8207C50.0136 17.9542 49.0839 17.237 48.0483 16.7044Z" fill="#A8A8A8"/>
<path d="M45.3893 15.6474C45.002 15.5326 44.6028 15.4298 44.1915 15.3389C43.7803 15.2481 43.3553 15.1676 42.9201 15.099C41.395 14.8506 39.7295 14.7341 37.9405 14.7341H22.8493C22.2749 14.7334 21.7192 14.9382 21.2827 15.3116C20.8461 15.6849 20.5576 16.2022 20.4692 16.7697L17.2615 37.1095L17.1689 37.7007C17.2691 37.0534 17.5974 36.4633 18.0945 36.0369C18.5916 35.6105 19.2248 35.3759 19.8798 35.3754H25.5293C36.6245 35.3754 45.3122 30.8688 47.8499 17.8321C47.9253 17.4466 47.9887 17.073 48.047 16.7046C47.3768 16.354 46.6787 16.0594 45.9599 15.8239C45.7731 15.7622 45.5829 15.7039 45.3893 15.6457" fill="#2D2D2D"/>
</svg>
