<svg width="233" height="47" viewBox="0 0 233 47" fill="none" xmlns="http://www.w3.org/2000/svg">
<path fill-rule="evenodd" clip-rule="evenodd" d="M8.38891 45.6309V28.0703H0V20.9191H8.38891V18.3781H0V11.3873H8.38891V0H27.4447C32.4394 0 36.1368 1.15728 38.5341 3.47186C40.9314 5.76439 42.1317 9.30228 42.1317 14.0855C42.1317 17.7115 41.2476 20.6267 39.4763 22.8312C37.7049 25.0136 35.243 26.5327 32.0812 27.3847L42.8027 45.6309H32.8877L23.0405 28.1049H17.3296V45.6309H8.38891ZM17.3296 20.9317H28.6224C31.4229 20.9317 32.8233 19.4128 32.8233 16.3781V11.6923C32.8233 10.164 32.5102 9.07272 31.8811 8.41546C31.2779 7.73934 30.1903 7.39969 28.6224 7.39969H17.3296V20.9317ZM43.1867 28.4667C43.1867 25.781 43.5675 23.3469 44.3289 21.1613C45.0904 18.9568 46.1552 17.0762 47.5231 15.5258C48.9138 13.9534 50.582 12.7427 52.5307 11.8904C54.4795 11.0382 56.6413 10.6137 59.0159 10.6137C61.3908 10.6137 63.5427 11.0288 65.469 11.859C67.4178 12.6892 69.0763 13.8339 70.4441 15.2994C71.8318 16.7397 72.8867 18.4662 73.6031 20.4757C74.3419 22.4853 74.7128 24.6583 74.7128 26.9947V31.2216H52.1629V33.4825C52.1629 35.536 52.847 37.1305 54.2117 38.2658C55.599 39.3791 57.2349 39.9357 59.1193 39.9357C61.0003 39.9357 62.5362 39.4545 63.7235 38.4953C64.9108 37.5331 65.6175 36.1808 65.84 34.4323H74.445C73.8836 38.2311 72.2381 41.1904 69.5053 43.31C66.7952 45.4077 63.2976 46.4548 59.0193 46.4548C56.5316 46.4548 54.3021 46.0178 52.3307 45.1435C50.382 44.2693 48.7234 43.0459 47.3553 41.4734C46.0099 39.9011 44.9807 38.011 44.2643 35.8066C43.5449 33.5988 43.1867 31.1523 43.1867 28.4667ZM52.1595 24.6992H65.9046V23.4884C65.9046 21.611 65.2559 20.0826 63.9558 18.9033C62.6555 17.724 61.01 17.136 59.0159 17.136C57.0445 17.136 55.4086 17.7272 54.1085 18.9033C52.8082 20.0826 52.1595 21.611 52.1595 23.4884V24.6992ZM77.2458 34.7563H85.8508C86.209 38.2061 88.3255 39.9326 92.2037 39.9326C93.8622 39.9326 95.2722 39.637 96.4369 39.0488C97.6018 38.4387 98.1858 37.4765 98.1858 36.165C98.1858 34.9197 97.705 34.0234 96.7404 33.4795C95.7755 32.9101 94.5108 32.4636 92.9427 32.1367L86.893 30.8598C81.0239 29.6144 78.088 26.3502 78.088 21.067C78.088 19.5826 78.3912 18.2052 78.9945 16.941C79.6204 15.6736 80.5173 14.5729 81.6822 13.6327C82.8469 12.6924 84.2699 11.9628 85.9509 11.4376C87.6318 10.8904 89.5451 10.6199 91.6973 10.6199C95.6851 10.6199 98.9569 11.5603 101.509 13.4377C104.064 15.3151 105.429 18.1549 105.61 21.9538H97.0048C96.9144 20.3374 96.3884 19.136 95.4239 18.3499C94.4624 17.5416 93.217 17.1391 91.6939 17.1391C90.2164 17.1391 89.0064 17.4567 88.0642 18.0888C87.1447 18.6989 86.6865 19.5637 86.6865 20.677C86.6865 21.7902 87.035 22.6205 87.7287 23.1677C88.4448 23.6929 89.3742 24.0734 90.5196 24.3155L97.476 25.7904C98.7537 26.0515 99.9634 26.4446 101.106 26.9697C102.271 27.4728 103.267 28.1269 104.097 28.9353C104.926 29.7434 105.574 30.7027 106.046 31.8191C106.539 32.9324 106.784 34.2529 106.784 35.7815C106.784 37.2657 106.458 38.6526 105.81 39.9419C105.161 41.2312 104.219 42.3541 102.987 43.3162C101.754 44.2755 100.231 45.0428 98.4148 45.609C96.6015 46.1749 94.527 46.461 92.1974 46.461C87.5156 46.461 83.8956 45.458 81.3433 43.4485C78.7913 41.4044 77.4232 38.511 77.2458 34.7563ZM109.421 28.4667C109.421 25.781 109.801 23.3469 110.562 21.1613C111.324 18.9568 112.389 17.0762 113.754 15.5258C115.144 13.9534 116.812 12.7427 118.761 11.8904C120.71 11.0382 122.872 10.6137 125.246 10.6137C127.621 10.6137 129.773 11.0288 131.699 11.859C133.648 12.6892 135.307 13.8339 136.675 15.2994C138.065 16.7397 139.117 18.4662 139.834 20.4757C140.572 22.4853 140.943 24.6583 140.943 26.9947V31.2216H118.393V33.4825C118.393 35.536 119.077 37.1305 120.442 38.2658C121.833 39.3791 123.468 39.9357 125.35 39.9357C127.231 39.9357 128.767 39.4545 129.954 38.4953C131.141 37.5331 131.848 36.1808 132.07 34.4323H140.675C140.114 38.2311 138.469 41.1904 135.736 43.31C133.026 45.4077 129.531 46.4548 125.25 46.4548C122.762 46.4548 120.533 46.0178 118.561 45.1435C116.612 44.2693 114.954 43.0459 113.586 41.4734C112.24 39.9011 111.211 38.011 110.495 35.8066C109.778 33.5988 109.421 31.1523 109.421 28.4667ZM118.393 24.6992H132.138V23.4884C132.138 21.611 131.49 20.0826 130.189 18.9033C128.889 17.724 127.244 17.136 125.25 17.136C123.278 17.136 121.642 17.7272 120.342 18.9033C119.042 20.0826 118.393 21.611 118.393 23.4884V24.6992ZM144.386 45.6309V11.4313H163.98V17.9819H152.991V45.6278H144.386V45.6309ZM166.517 11.4313H175.725L183.388 36.2281H183.656L191.486 11.4313H200.595L188.26 45.6309H178.848L166.517 11.4313ZM200.785 28.4667C200.785 25.781 201.166 23.3469 201.927 21.1613C202.689 18.9568 203.754 17.0762 205.118 15.5258C206.509 13.9534 208.177 12.7427 210.126 11.8904C212.075 11.0382 214.237 10.6137 216.611 10.6137C218.986 10.6137 221.138 11.0288 223.064 11.859C225.013 12.6892 226.672 13.8339 228.036 15.2994C229.427 16.7397 230.479 18.4662 231.195 20.4757C231.934 22.4853 232.305 24.6583 232.305 26.9947V31.2216H209.755V33.4825C209.755 35.536 210.439 37.1305 211.804 38.2658C213.194 39.3791 214.83 39.9357 216.711 39.9357C218.592 39.9357 220.128 39.4545 221.315 38.4953C222.503 37.5331 223.209 36.1808 223.432 34.4323H232.037C231.476 38.2311 229.83 41.1904 227.098 43.31C224.387 45.4077 220.893 46.4548 216.611 46.4548C214.124 46.4548 211.894 46.0178 209.923 45.1435C207.974 44.2693 206.316 43.0459 204.948 41.4734C203.602 39.9011 202.573 38.011 201.857 35.8066C201.143 33.5988 200.785 31.1523 200.785 28.4667ZM209.758 24.6992H223.503V23.4884C223.503 21.611 222.855 20.0826 221.554 18.9033C220.254 17.724 218.608 17.136 216.615 17.136C214.643 17.136 213.007 17.7272 211.707 18.9033C210.407 20.0826 209.758 21.611 209.758 23.4884V24.6992Z" fill="#606060"/>
</svg>
