<svg width="254" height="64" viewBox="0 0 254 64" fill="none" xmlns="http://www.w3.org/2000/svg">
<path d="M88.4369 30.6115C88.4369 14.4078 68.6416 1.19963 44.2207 1.19963C19.8011 1.19963 0.00541716 14.4078 0.00541716 30.6115C0.00541716 31.0294 0 32.1862 0 32.3333C0 49.5227 17.3026 63.4453 44.2145 63.4453C71.2934 63.4453 88.4369 49.5265 88.4369 32.3367V30.6115Z" fill="#002F6D"/>
<path d="M86.744 30.5966C86.744 45.8723 67.7092 58.2559 44.2288 58.2559C20.7475 58.2559 1.71484 45.8723 1.71484 30.5966C1.71484 15.3192 20.7475 2.93526 44.2288 2.93526C67.7092 2.93526 86.744 15.3192 86.744 30.5966Z" fill="#FFE900"/>
<path d="M30.112 21.8698C30.0891 21.9134 29.6653 22.3597 29.9399 22.7182C30.6116 23.5898 32.683 24.0895 34.7785 23.6119C36.0265 23.3267 37.6249 22.0325 39.175 20.7829C40.8538 19.426 42.5202 18.0678 44.1948 17.5275C45.9678 16.9538 47.1037 17.1995 47.8542 17.4309C48.678 17.6805 49.6455 18.2318 51.1902 19.4103C54.0991 21.6342 65.7981 32.0176 67.8182 33.8135C69.4458 33.0651 76.6787 29.8984 86.51 27.6944C85.6567 22.3643 82.4673 17.4885 77.6329 13.4955C70.8954 16.3736 62.6596 17.8754 54.6062 13.876C54.5654 13.8586 50.2064 11.7606 45.907 11.864C39.5183 12.0144 36.7511 14.8269 33.8205 17.8042L30.112 21.8698Z" fill="white"/>
<path d="M67.3441 34.9426C67.2074 34.8184 53.5892 22.7015 50.5053 20.3432C48.7198 18.9817 47.7264 18.6342 46.6838 18.4995C46.1413 18.4278 45.3908 18.5304 44.8671 18.6762C43.432 19.0732 41.5556 20.3492 39.8897 21.6925C38.1642 23.0896 36.5387 24.4054 35.029 24.7491C33.1018 25.1885 30.7471 24.6698 29.6729 23.9312C29.2366 23.6337 28.9308 23.2896 28.7833 22.94C28.387 22.0039 29.1195 21.256 29.2391 21.1306L32.9968 16.9972C33.4327 16.554 33.8731 16.1103 34.3236 15.6734C33.1106 15.834 31.9905 16.1489 30.8996 16.4578C29.5383 16.8472 28.2287 17.2172 26.904 17.2167C26.3506 17.2167 23.3867 16.7226 22.8246 16.5671C19.424 15.6204 16.4393 14.6987 11.9807 12.5825C6.63957 16.6264 3.06646 21.6832 2.03516 27.2531C2.80186 27.4599 4.03943 27.834 4.55821 27.9514C16.6472 30.6851 20.4132 33.5014 21.0958 34.0883C21.8354 33.2527 22.9017 32.7225 24.0926 32.7225C25.431 32.7242 26.6361 33.4078 27.3682 34.4638C28.0612 33.9082 29.0158 33.4328 30.25 33.4332C30.8105 33.4332 31.3926 33.5387 31.9797 33.7417C33.3427 34.2176 34.0465 35.1409 34.4123 35.9762C34.8694 35.7664 35.4324 35.6117 36.0945 35.6134C36.7454 35.6134 37.4225 35.7643 38.105 36.0647C40.3339 37.0373 40.6814 39.2641 40.4785 40.9431C40.6377 40.9236 40.7973 40.9168 40.9594 40.9168C43.602 40.918 45.7509 43.1025 45.7509 45.7917C45.7509 46.6236 45.5417 47.4062 45.1783 48.0923C45.8967 48.5038 47.7301 49.4344 49.3394 49.2271C50.6249 49.061 51.1128 48.6152 51.2882 48.3635C51.4078 48.191 51.5345 47.9893 51.4157 47.8444L48.0051 43.9907C48.0051 43.9907 47.4435 43.4504 47.6293 43.2415C47.8218 43.0271 48.1677 43.3343 48.4139 43.5441C50.1503 45.0184 52.2695 47.2439 52.2695 47.2439C52.305 47.2672 52.4462 47.5486 53.2296 47.6914C53.9051 47.8143 55.0984 47.7436 55.926 47.0537C56.1343 46.8787 56.3431 46.6596 56.5173 46.4363C56.5044 46.4456 56.4923 46.4617 56.4798 46.4672C57.3519 45.3315 56.3827 44.1831 56.3827 44.1831L52.4 39.6353C52.4 39.6353 51.8312 39.1001 52.0241 38.8844C52.1979 38.6975 52.5641 38.9793 52.8133 39.1904C54.0751 40.2629 55.8568 42.0817 57.5632 43.7818C57.8957 44.031 59.3979 44.9734 61.3838 43.6462C62.5909 42.8432 62.8326 41.8546 62.7985 41.1092C62.7147 40.1227 61.9572 39.4188 61.9572 39.4188L56.5173 33.8574C56.5173 33.8574 55.9431 33.3577 56.1468 33.1052C56.3114 32.8933 56.686 33.1993 56.9298 33.4078C58.6632 34.882 63.3547 39.2556 63.3547 39.2556C63.4201 39.3039 65.0415 40.4773 67.0445 39.1806C67.7608 38.7149 68.2183 38.0128 68.2571 37.1979C68.3258 35.7825 67.3441 34.9426 67.3441 34.9426Z" fill="white"/>
<path d="M40.958 41.9938C40.1146 41.9836 39.1912 42.4934 39.0704 42.4192C39.0046 42.3739 39.1225 42.0298 39.2017 41.8315C39.2825 41.6331 40.3934 38.2342 37.6857 37.054C35.6135 36.1484 34.3481 37.1667 33.9122 37.6265C33.7976 37.7477 33.7468 37.7375 33.7339 37.5837C33.6922 36.9722 33.423 35.3162 31.6337 34.7623C29.0786 33.9652 27.4352 35.7802 27.0181 36.4345C26.8318 34.9534 25.5997 33.8033 24.0908 33.8016C22.452 33.7999 21.1232 35.1505 21.1211 36.8171C21.1207 38.4833 22.4487 39.8343 24.0883 39.8343C24.8842 39.8368 25.6072 39.5126 26.1393 38.9927C26.1559 39.0075 26.1626 39.0363 26.1539 39.094C26.0293 39.8402 25.7997 42.5523 28.5915 43.6557C29.7116 44.0973 30.6637 43.7693 31.4529 43.2061C31.6892 43.0371 31.7267 43.1078 31.6933 43.3337C31.5921 44.0316 31.72 45.5241 33.7784 46.3725C35.3448 47.0191 36.2715 46.3564 36.8786 45.786C37.1428 45.5402 37.2153 45.5809 37.2286 45.9597C37.3032 47.9789 38.9521 49.5808 40.9538 49.582C43.016 49.5833 44.687 47.8874 44.689 45.7919C44.6907 43.6943 43.0198 42.0171 40.958 41.9938Z" fill="white"/>
<path d="M40.9578 49.3114C39.0885 49.3093 37.5693 47.8337 37.501 45.9514C37.4951 45.7891 37.4793 45.3602 37.1226 45.3602C36.9755 45.3602 36.8484 45.4496 36.7013 45.584C36.2905 45.9721 35.7667 46.3654 35.0025 46.3654C34.655 46.3654 34.2795 46.284 33.8824 46.1183C31.9081 45.306 31.8815 43.9267 31.9623 43.3724C31.9836 43.2241 31.9907 43.0711 31.8911 42.9503L31.7706 42.8401H31.6469C31.546 42.8401 31.4435 42.8821 31.3031 42.9829C30.7314 43.3898 30.1847 43.5881 29.6276 43.5881C29.3218 43.5881 29.0076 43.5258 28.6917 43.4029C26.0937 42.3736 26.2991 39.8789 26.4258 39.128C26.4449 38.9763 26.4074 38.8581 26.3124 38.7797L26.1287 38.6258L25.957 38.7937C25.4507 39.2903 24.7878 39.5611 24.0915 39.5611C22.6035 39.5598 21.3922 38.3292 21.393 36.8168C21.3943 35.3014 22.6064 34.073 24.0956 34.0747C25.4403 34.0747 26.5858 35.1035 26.7579 36.4698L26.8495 37.2067L27.2475 36.5837C27.2925 36.51 28.3825 34.8332 30.3881 34.8353C30.7689 34.8353 31.1631 34.8976 31.5594 35.0222C33.1574 35.5184 33.4282 36.9922 33.4703 37.6059C33.4987 37.9644 33.7491 37.9805 33.7978 37.9805C33.9358 37.9805 34.0378 37.8923 34.1095 37.8143C34.4112 37.4944 35.0683 36.9626 36.0967 36.9626C36.5663 36.9634 37.0672 37.0766 37.5843 37.3033C40.1244 38.4114 38.9723 41.6939 38.9585 41.7286C38.7398 42.2727 38.7319 42.5126 38.9369 42.6516L39.0373 42.699H39.1102C39.2252 42.699 39.3677 42.649 39.6027 42.5681C39.9486 42.4465 40.4707 42.263 40.9582 42.2642H40.9595C42.8721 42.2863 44.4272 43.8686 44.4259 45.7912C44.4234 47.7337 42.8679 49.3114 40.9578 49.3114ZM67.8688 33.4924C63.6749 29.7688 53.9806 21.1983 51.3554 19.1935C49.8549 18.0468 48.832 17.4408 47.934 17.1683C47.5298 17.0446 46.9723 16.9035 46.2535 16.9026C45.5847 16.9026 44.868 17.0255 44.1192 17.2679C42.4229 17.8137 40.7324 19.1803 39.0973 20.5016L39.0131 20.5694C37.4897 21.8005 35.9155 23.0743 34.7246 23.3446C34.2049 23.4637 33.6703 23.5256 33.1361 23.5256C31.8027 23.5235 30.6039 23.1328 30.1543 22.5492C30.0801 22.453 30.1281 22.2967 30.3014 22.0725L30.3239 22.0424L34.0137 17.9985C36.9047 15.0593 39.6344 12.2845 45.9177 12.137C46.0222 12.1345 46.1281 12.1328 46.2323 12.1328C50.1429 12.1353 54.0531 13.916 54.4915 14.1223C58.1596 15.9407 61.9448 16.8653 65.7508 16.8687C69.7164 16.87 73.8079 15.8716 78.1106 13.8567C77.6302 13.4452 77.1293 13.046 76.6151 12.6532C72.8358 14.3198 69.2347 15.1623 65.7616 15.1606C62.2131 15.1576 58.6667 14.291 55.2248 12.5833C55.0436 12.4951 50.7258 10.425 46.2343 10.4225C46.1168 10.4225 45.9964 10.425 45.8793 10.4263C40.6011 10.5517 37.6276 12.4587 35.6288 14.1283C33.6841 14.1757 32.0065 14.6533 30.5139 15.0771C29.1822 15.4534 28.0317 15.7805 26.9095 15.7793C26.4479 15.7793 25.6157 15.7365 25.5407 15.7339C24.2507 15.6936 17.752 14.0723 12.5813 12.0824C12.0533 12.4621 11.5454 12.8545 11.0508 13.2541C16.4519 15.5063 23.0252 17.248 25.0995 17.3849C25.6761 17.423 26.2916 17.4895 26.907 17.4908C28.2796 17.4908 29.648 17.0988 30.9748 16.7221C31.7573 16.4979 32.6219 16.2551 33.5295 16.078C33.2874 16.3195 33.0457 16.5653 32.8036 16.8136L29.0534 20.9377C28.7576 21.2402 28.1184 22.0492 28.5401 23.045C28.708 23.4468 29.0488 23.8307 29.5251 24.1578C30.4193 24.7693 32.019 25.1829 33.5049 25.1842C34.0683 25.1842 34.6016 25.1274 35.0925 25.0151C36.6638 24.6562 38.3122 23.3213 40.0586 21.9094C41.4503 20.7847 43.4275 19.3571 44.9414 18.938C45.3635 18.8206 45.8822 18.7485 46.3006 18.7485C46.4252 18.7494 46.5423 18.7532 46.6527 18.7689C47.6523 18.8981 48.6195 19.2443 50.3458 20.5618C53.4222 22.9128 67.0421 35.0281 67.1746 35.148C67.1851 35.1561 68.0522 35.918 67.9918 37.1842C67.9597 37.8898 67.5738 38.5174 66.9042 38.953C66.3229 39.3267 65.7229 39.5183 65.1162 39.5183C64.2057 39.5162 63.5794 39.0822 63.539 39.053C63.489 39.0115 58.8229 34.6603 57.1066 33.1992C56.8324 32.9686 56.5674 32.7614 56.2978 32.7614C56.1545 32.7602 56.0274 32.8225 55.9415 32.9322C55.6715 33.2704 55.974 33.739 56.3303 34.0471L61.7818 39.6187C61.7885 39.6255 62.4598 40.2662 62.534 41.1205C62.5765 42.0443 62.1431 42.816 61.2402 43.419C60.5968 43.8487 59.9451 44.0678 59.308 44.0678C58.4713 44.0678 57.8837 43.6796 57.7541 43.5881L56.9716 42.8045C55.5428 41.3743 54.0673 39.8963 52.9876 38.9793C52.7243 38.7568 52.4426 38.5517 52.1742 38.5517C52.043 38.5517 51.923 38.6017 51.8313 38.6996C51.7076 38.839 51.6226 39.0894 51.9292 39.5043C52.0551 39.6751 52.2038 39.8166 52.2038 39.8166L56.1824 44.3585C56.2153 44.3991 57.002 45.3496 56.2711 46.298L56.1315 46.4785C56.0124 46.6133 55.8836 46.7362 55.7615 46.8404C55.0836 47.4074 54.1769 47.4684 53.8185 47.4684C53.6256 47.4684 53.4406 47.4511 53.2793 47.4223C52.8876 47.3502 52.6239 47.2388 52.4968 47.0849L52.448 47.0354C52.2309 46.8057 50.2258 44.725 48.567 43.3169C48.3482 43.1304 48.0761 42.8948 47.7936 42.8948C47.6548 42.8948 47.5298 42.9503 47.4348 43.0584C47.1061 43.4245 47.5998 43.9703 47.8086 44.1712L51.2013 47.9753C51.1971 48.01 51.1538 48.0888 51.0717 48.2092C50.95 48.3787 50.5387 48.7969 49.3078 48.9558C49.1612 48.9741 49.0087 48.9825 48.8587 48.9825C47.5894 48.9825 46.2364 48.3562 45.5385 47.9795C45.8556 47.2972 46.0202 46.5472 46.0202 45.7925C46.0222 42.9529 43.7546 40.6442 40.9624 40.6417C40.9032 40.6417 40.8399 40.6442 40.7795 40.6463C40.8711 39.3496 40.6911 36.8952 38.2135 35.8138C37.501 35.4998 36.7892 35.3404 36.098 35.3404C35.5571 35.3404 35.0371 35.4345 34.5462 35.6256C34.0337 34.6116 33.1811 33.8725 32.069 33.4865C31.4552 33.2704 30.8439 33.1615 30.2535 33.1615C29.2226 33.1615 28.2725 33.4691 27.425 34.0823C26.6137 33.0568 25.387 32.4478 24.0956 32.4478C22.9664 32.4478 21.8793 32.908 21.0742 33.7187C20.0188 32.8992 15.8298 30.193 4.61959 27.6047C4.07665 27.4797 2.83075 27.1161 2.06696 26.889C1.94028 27.506 1.84403 28.1302 1.78027 28.7599C1.78027 28.7599 3.8483 29.2633 4.25499 29.3557C15.7069 31.9427 19.4908 34.6328 20.1308 35.1408C19.9146 35.6697 19.8017 36.2409 19.8004 36.8168C19.7992 39.2212 21.723 41.1815 24.0906 41.1841C24.3565 41.1841 24.6194 41.1612 24.8786 41.112C25.2349 42.8821 26.3737 44.2246 28.1154 44.9127C28.6234 45.1123 29.1388 45.214 29.6439 45.214C29.9701 45.2153 30.2997 45.1734 30.621 45.0903C30.9423 45.9213 31.6669 46.9561 33.2841 47.624C33.8503 47.8566 34.4179 47.9782 34.9696 47.9782C35.4196 47.9782 35.8604 47.8986 36.2801 47.7396C37.0555 49.6601 38.8994 50.9331 40.9566 50.9331C42.3191 50.9344 43.6279 50.3699 44.5826 49.3707C45.3989 49.833 47.1248 50.6674 48.8661 50.6712C49.092 50.6712 49.3041 50.6551 49.5149 50.628C51.2454 50.4055 52.0513 49.7186 52.4209 49.183C52.4872 49.0902 52.5476 48.9906 52.5989 48.8885C53.008 49.0067 53.4572 49.1042 53.9714 49.1054C54.9165 49.1054 55.8232 48.7783 56.7407 48.0994C57.6412 47.4371 58.2817 46.4904 58.3733 45.6827C58.375 45.6721 58.3779 45.6594 58.3792 45.6475C58.6817 45.7115 58.9934 45.745 59.305 45.745C60.2776 45.745 61.2339 45.4357 62.1485 44.8271C63.9128 43.6508 64.2195 42.1138 64.1903 41.1091C64.4995 41.1748 64.8149 41.2087 65.1279 41.2087C66.0421 41.2087 66.9388 40.9281 67.7938 40.3739C68.8868 39.6632 69.5448 38.575 69.6439 37.308C69.7135 36.4469 69.5031 35.5786 69.0572 34.8323C72.0124 33.5373 78.7682 31.0308 86.7228 29.2082C86.6749 28.581 86.5861 27.9615 86.4761 27.3449C76.8506 29.5171 69.6685 32.6779 67.8688 33.4924Z" fill="#002F6D"/>
<path d="M106.232 14.396V27.6228H101.037V15.452C101.037 9.54227 103.962 6.60773 109.773 6.60773C112.389 6.60773 114.39 7.19464 115.852 8.36845C117.315 7.23363 119.315 6.68613 121.933 6.68613C127.744 6.68613 130.63 9.62067 130.591 15.53V27.7017H127.936C126.243 27.5834 125.396 26.7622 125.396 25.1184V14.474C125.281 12.3213 124.126 11.2644 121.856 11.2644C119.586 11.2644 118.43 12.3213 118.393 14.474V27.6228H113.236V14.396C113.12 12.2429 111.966 11.1865 109.696 11.1865C107.425 11.1865 106.27 12.2429 106.232 14.396Z" fill="#002F6D"/>
<path d="M155.687 17.0192C155.84 10.3268 159.092 6.60702 165.903 6.60702H167.448V12.0074L165.07 12.0595C162.222 12.0595 160.881 13.927 160.881 16.9404V27.7026H155.687V17.0192Z" fill="#002F6D"/>
<path d="M202.928 18.953V17.2588C201.736 17.7678 200.35 17.9754 198.849 18.2881C196.81 18.6797 195.77 19.6582 195.77 21.1841C195.886 22.8279 196.733 23.6101 198.349 23.6101C201.197 23.6101 202.928 21.888 202.928 18.953ZM196.103 13.1005L191.337 13.095C191.52 9.09552 193.499 6.43007 199.311 6.43007C204.929 6.43007 207.777 8.3086 207.893 12.144V19.1882C207.893 24.9018 204.506 27.4456 199.003 27.8367C194.116 28.2279 190.729 25.9192 190.729 21.3405C190.845 16.3698 194.386 15.04 199.542 14.5311C201.736 14.2573 202.851 13.5916 202.851 12.4572C202.736 11.283 201.658 10.724 199.542 10.6961C197.145 10.6639 196.373 12.122 196.103 13.1005Z" fill="#002F6D"/>
<path d="M216.108 17.2129C216.069 21.4009 217.454 23.5138 220.379 23.5138C223.304 23.5138 224.765 21.4009 224.765 17.2129C224.65 13.2211 223.227 11.2642 220.456 11.2642C217.686 11.2642 216.261 13.2211 216.108 17.2129ZM229.845 0.000205994V18.6613C229.845 24.8834 226.651 27.9751 220.302 27.9362C213.991 27.8179 210.835 24.3355 210.835 17.4481C210.835 10.4039 213.529 6.80325 218.955 6.60747C221.495 6.60747 223.458 7.66433 224.765 9.8166V3.21824L224.778 2.63557C226.47 0.0667362 229.845 0.000205994 229.845 0.000205994Z" fill="#002F6D"/>
<path d="M138.705 30.8552H140.045V58.2725H134.927V34.205C134.927 33.424 136.517 30.8552 138.705 30.8552Z" fill="#002F6D"/>
<path d="M165.087 53.8489C162.162 53.8489 160.776 51.7365 160.815 47.5489C160.969 43.5566 162.393 41.6001 165.164 41.6001C167.935 41.6001 169.358 43.5566 169.474 47.5489C169.474 51.7365 168.012 53.8489 165.087 53.8489ZM166.587 36.943C164.048 36.943 162.123 37.9999 160.815 40.1521L160.814 30.8548H160.235C157.682 30.8862 156.341 32.2719 155.697 33.4042V33.2253V48.9968C155.697 55.2185 158.891 58.3107 165.241 58.2721C171.552 58.1535 174.707 54.671 174.707 47.7836C174.707 40.7395 172.013 37.1383 166.587 36.943Z" fill="#002F6D"/>
<path d="M145.876 11.8091C145.224 11.0815 144.232 10.7166 142.902 10.7166C142.032 10.7166 141.31 10.8666 140.735 11.1654C140.159 11.465 139.699 11.8353 139.354 12.2773C139.008 12.7197 138.765 13.188 138.625 13.6821C138.484 14.1762 138.401 14.6182 138.376 15.0085H147.238C146.982 13.6041 146.528 12.5379 145.876 11.8091ZM139.719 22.4213C140.536 23.2281 141.713 23.6311 143.247 23.6311C144.347 23.6311 145.294 23.3519 146.087 22.7921C146.879 22.2331 147.365 21.6412 147.544 21.017H152.34C151.573 23.4358 150.397 25.166 148.811 26.2059C147.224 27.2466 145.306 27.7666 143.056 27.7666C141.496 27.7666 140.089 27.5132 138.836 27.006C137.582 26.4987 136.521 25.7766 135.652 24.8405C134.782 23.904 134.11 22.7861 133.637 21.4848C133.164 20.1851 132.928 18.7541 132.928 17.1934C132.928 15.6852 133.17 14.2809 133.657 12.9795C134.142 11.6794 134.833 10.5547 135.728 9.60467C136.623 8.65545 137.69 7.90751 138.932 7.36129C140.172 6.81506 141.546 6.54216 143.056 6.54216C144.744 6.54216 146.214 6.87396 147.468 7.53672C148.721 8.19991 149.751 9.0915 150.556 10.2094C151.362 11.3281 151.943 12.6028 152.302 14.0334C152.66 15.464 152.788 16.9595 152.685 18.5197H138.376C138.452 20.3144 138.899 21.6157 139.719 22.4213Z" fill="#002F6D"/>
<path d="M178.968 10.6515C178.09 10.6515 177.353 10.8553 176.759 11.2621C176.165 11.6702 175.68 12.1953 175.306 12.839C174.931 13.4831 174.667 14.192 174.512 14.9671C174.357 15.7421 174.279 16.5108 174.279 17.2723C174.279 18.0084 174.357 18.7568 174.512 19.5187C174.667 20.281 174.918 20.9709 175.267 21.5879C175.616 22.2053 176.087 22.7109 176.682 23.105C177.276 23.4991 177.999 23.6961 178.852 23.6961C180.169 23.6961 181.183 23.3215 181.894 22.5731C182.604 21.8244 183.05 20.8192 183.23 19.5581H188.54C188.178 22.2646 187.145 24.3267 185.44 25.7454C183.734 27.1642 181.551 27.8735 178.89 27.8735C177.392 27.8735 176.016 27.6176 174.763 27.1053C173.51 26.5929 172.444 25.8772 171.567 24.9572C170.688 24.0381 170.003 22.941 169.513 21.6667C169.022 20.3925 168.776 18.9936 168.776 17.4694C168.776 15.893 169.002 14.4289 169.455 13.0754C169.906 11.7223 170.571 10.5532 171.45 9.56795C172.328 8.58271 173.4 7.81401 174.667 7.26227C175.932 6.71054 177.379 6.43467 179.007 6.43467C180.195 6.43467 181.338 6.59231 182.436 6.90759C183.534 7.22286 184.516 7.70256 185.382 8.34625C186.247 8.99037 186.951 9.79127 187.494 10.7498C188.036 11.7096 188.346 12.8457 188.423 14.159H183.037C182.675 11.8211 181.319 10.6515 178.968 10.6515Z" fill="#002F6D"/>
<path d="M238.783 19.5776C238.938 20.3531 239.203 21.0493 239.578 21.6663C239.952 22.2841 240.45 22.7765 241.07 23.1444C241.69 23.5126 242.465 23.6961 243.395 23.6961C244.325 23.6961 245.106 23.5126 245.739 23.1444C246.372 22.7765 246.876 22.2841 247.25 21.6663C247.625 21.0493 247.89 20.3531 248.045 19.5776C248.2 18.803 248.277 18.008 248.277 17.1935C248.277 16.3795 248.2 15.5777 248.045 14.7895C247.89 14.0013 247.625 13.3055 247.25 12.7004C246.876 12.0965 246.372 11.6041 245.739 11.2227C245.106 10.8422 244.325 10.6515 243.395 10.6515C242.465 10.6515 241.69 10.8422 241.07 11.2227C240.45 11.6041 239.952 12.0965 239.578 12.7004C239.203 13.3055 238.938 14.0013 238.783 14.7895C238.628 15.5777 238.551 16.3795 238.551 17.1935C238.551 18.008 238.628 18.803 238.783 19.5776ZM233.784 12.7597C234.275 11.4333 234.972 10.3036 235.877 9.37048C236.781 8.43821 237.866 7.71527 239.132 7.20295C240.397 6.69062 241.818 6.43467 243.395 6.43467C244.971 6.43467 246.398 6.69062 247.677 7.20295C248.956 7.71527 250.047 8.43821 250.951 9.37048C251.856 10.3036 252.553 11.4333 253.044 12.7597C253.534 14.0865 253.78 15.5646 253.78 17.1935C253.78 18.8229 253.534 20.2937 253.044 21.6074C252.553 22.9215 251.856 24.0444 250.951 24.9767C250.047 25.9098 248.956 26.626 247.677 27.1248C246.398 27.6235 244.971 27.8735 243.395 27.8735C241.818 27.8735 240.397 27.6235 239.132 27.1248C237.866 26.626 236.781 25.9098 235.877 24.9767C234.972 24.0444 234.275 22.9215 233.784 21.6074C233.293 20.2937 233.048 18.8229 233.048 17.1935C233.048 15.5646 233.293 14.0865 233.784 12.7597Z" fill="#002F6D"/>
<path d="M177.719 47.5305C177.873 40.838 181.124 37.1187 187.936 37.1187H189.481V42.5186L187.102 42.5712C184.254 42.5712 182.914 44.4383 182.914 47.4516V58.2139H177.719V47.5305Z" fill="#002F6D"/>
<path d="M203.736 42.3207C203.084 41.5927 202.092 41.2283 200.762 41.2283C199.893 41.2283 199.171 41.3779 198.595 41.6766C198.02 41.9766 197.559 42.347 197.214 42.7886C196.869 43.231 196.625 43.6996 196.485 44.1937C196.344 44.6878 196.261 45.1298 196.236 45.5197H205.098C204.842 44.1154 204.388 43.0492 203.736 42.3207ZM197.579 52.9329C198.397 53.7394 199.574 54.1424 201.108 54.1424C202.207 54.1424 203.155 53.8631 203.947 53.3037C204.739 52.7448 205.226 52.1524 205.405 51.5286H210.201C209.433 53.9474 208.257 55.6776 206.671 56.7175C205.085 57.7583 203.167 58.2778 200.916 58.2778C199.356 58.2778 197.949 58.0248 196.696 57.5172C195.443 57.0099 194.381 56.2883 193.512 55.3522C192.642 54.4153 191.971 53.2974 191.498 51.9964C191.024 50.6968 190.788 49.2657 190.788 47.7046C190.788 46.1964 191.031 44.7921 191.517 43.4912C192.002 42.1906 192.693 41.066 193.588 40.1163C194.484 39.1671 195.551 38.4192 196.792 37.8729C198.032 37.3267 199.406 37.0534 200.916 37.0534C202.604 37.0534 204.075 37.3856 205.328 38.0484C206.581 38.7111 207.611 39.6027 208.417 40.721C209.222 41.8398 209.804 43.1144 210.162 44.5446C210.52 45.9752 210.648 47.4707 210.546 49.0314H196.236C196.313 50.8256 196.76 52.127 197.579 52.9329Z" fill="#002F6D"/>
<path d="M150.654 35.5962H145.535V30.8552H150.654V35.5962Z" fill="#002F6D"/>
<path d="M150.654 58.2729H145.535V37.9799H150.654V58.2729Z" fill="#002F6D"/>
</svg>
